<svg width="16" height="16" viewBox="0 0 16 16" fill="none" xmlns="http://www.w3.org/2000/svg">
<path d="M7.99953 15.5C7.01056 15.501 6.0314 15.3071 5.12045 14.9298C4.2095 14.5524 3.38536 13.9994 2.69691 13.3036C1.28075 11.8882 0.49138 9.98253 0.500071 8.00024C0.491409 6.01781 1.28076 4.11201 2.69691 2.69642C3.38536 2.00059 4.2095 1.44756 5.12045 1.07023C6.0314 0.692907 7.01056 0.498987 7.99953 0.500004C8.98869 0.498975 9.96796 0.692932 10.8791 1.07034C11.7902 1.44775 12.6145 2.0009 13.3031 2.69688C14.7193 4.11245 15.5086 6.01827 15.4999 8.00071C15.5086 9.983 14.7192 11.8887 13.3031 13.3041C12.6144 13.9998 11.7902 14.5528 10.8791 14.9301C9.96796 15.3073 8.98862 15.5011 7.99953 15.5ZM8.0054 9.24085L10.7146 11.5891C10.8647 11.7217 11.0593 11.7958 11.2613 11.7975C11.2888 11.7975 11.3162 11.7961 11.3435 11.7933C11.4567 11.7807 11.5659 11.7451 11.6642 11.6888C11.7626 11.6324 11.848 11.5565 11.9146 11.466C12.0558 11.2727 12.1197 11.0353 12.0944 10.7989C12.069 10.5625 11.9561 10.3433 11.777 10.183L9.32806 8.06107L11.7049 5.93916C11.8788 5.77405 11.9848 5.55203 12.0025 5.31536C12.0203 5.07869 11.9484 4.84389 11.8009 4.65564C11.7234 4.55427 11.6233 4.47176 11.508 4.41452C11.3927 4.35728 11.2653 4.32684 11.1361 4.32557C10.9359 4.32644 10.7432 4.4008 10.5962 4.53398L7.96734 6.88223L5.25765 4.53398C5.10753 4.40145 4.91301 4.32732 4.71097 4.32557C4.58322 4.32621 4.45756 4.35644 4.34401 4.41381C4.23046 4.47117 4.13227 4.55404 4.05763 4.65564C3.91677 4.84909 3.85303 5.08637 3.87838 5.32272C3.90372 5.55907 4.01647 5.77817 4.1953 5.93868L6.64374 8.06059L4.26742 10.1825C4.09334 10.3474 3.98728 10.5694 3.96953 10.806C3.95178 11.0427 4.02349 11.2774 4.1711 11.4655C4.24872 11.5669 4.34914 11.6494 4.46453 11.7067C4.57992 11.7639 4.70733 11.7943 4.83666 11.7956C5.03672 11.7948 5.229 11.7204 5.37582 11.5872L8.00493 9.23896L8.0054 9.24085Z" fill="#737373"/>
</svg>
