<svg width="18" height="20" viewBox="0 0 18 20" fill="none" xmlns="http://www.w3.org/2000/svg">
<path fill-rule="evenodd" clip-rule="evenodd" d="M13.04 14.89C13.56 14.42 14.24 14.12 15 14.12C16.61 14.12 17.92 15.43 17.92 17.04C17.92 18.65 16.61 19.96 15 19.96C13.39 19.96 12.08 18.65 12.08 17.04C12.08 16.82 12.11 16.6 12.16 16.39L5.04 12.23C4.5 12.73 3.79 13.04 3 13.04C1.34 13.04 0 11.7 0 10.04C0 8.37998 1.34 7.03998 3 7.03998C3.79 7.03998 4.5 7.34998 5.04 7.84998L12.09 3.73998C12.04 3.50998 12 3.27998 12 3.03998C12 1.37998 13.34 0.039978 15 0.039978C16.66 0.039978 18 1.37998 18 3.03998C18 4.69998 16.66 6.03998 15 6.03998C14.21 6.03998 13.5 5.72998 12.96 5.22998L5.91 9.33998C5.96 9.56998 6 9.79998 6 10.04C6 10.28 5.96 10.51 5.91 10.74L13.04 14.89ZM16 3.03998C16 2.48998 15.55 2.03998 15 2.03998C14.45 2.03998 14 2.48998 14 3.03998C14 3.58998 14.45 4.03998 15 4.03998C15.55 4.03998 16 3.58998 16 3.03998ZM3 11.04C2.45 11.04 2 10.59 2 10.04C2 9.48998 2.45 9.03998 3 9.03998C3.55 9.03998 4 9.48998 4 10.04C4 10.59 3.55 11.04 3 11.04ZM14 17.06C14 17.61 14.45 18.06 15 18.06C15.55 18.06 16 17.61 16 17.06C16 16.51 15.55 16.06 15 16.06C14.45 16.06 14 16.51 14 17.06Z" fill="#343434"/>
</svg>
