<svg width="18" height="18" viewBox="0 0 18 18" fill="none" xmlns="http://www.w3.org/2000/svg">
<path fill-rule="evenodd" clip-rule="evenodd" d="M3.4493 14.2136C4.72556 15.0663 6.22603 15.5215 7.76096 15.5214C8.78047 15.5242 9.79042 15.3248 10.7323 14.9347C11.3329 14.686 11.8981 14.3629 12.4153 13.9741C12.4561 14.0331 12.5028 14.0892 12.5553 14.1417L15.5588 17.1452C16.0309 17.6173 16.7963 17.6173 17.2684 17.1452C17.7405 16.6731 17.741 15.9072 17.2689 15.4351L14.2654 12.4317C14.2057 12.372 14.1414 12.3199 14.0736 12.2753C15.0092 10.967 15.5216 9.39036 15.5216 7.76092C15.5216 5.70259 14.7039 3.72857 13.2485 2.27312C11.793 0.817666 9.81899 0 7.76066 0C5.70234 0 3.72832 0.817666 2.27286 2.27312C1.18755 3.35852 0.448467 4.74138 0.149071 6.24683C-0.150325 7.75228 0.00341511 9.3127 0.590849 10.7308C1.17828 12.1488 2.17303 13.3609 3.4493 14.2136ZM4.84046 3.38982C5.7049 2.8121 6.72124 2.50367 7.76096 2.50356C9.15479 2.50514 10.4911 3.05949 11.4767 4.04502C12.4624 5.03055 13.0169 6.36679 13.0186 7.76062C13.0186 8.80034 12.7103 9.81672 12.1327 10.6812C11.5551 11.5457 10.7341 12.2195 9.77349 12.6175C8.81292 13.0154 7.75593 13.1195 6.73618 12.9167C5.71642 12.7139 4.7797 12.2133 4.04446 11.4781C3.30923 10.743 2.80849 9.80632 2.60558 8.78659C2.40267 7.76686 2.50669 6.70985 2.90449 5.74924C3.3023 4.78863 3.97601 3.96755 4.84046 3.38982Z" fill="#A09E9E"/>
</svg>
