<svg width="24" height="24" viewBox="0 0 24 24" fill="none" xmlns="http://www.w3.org/2000/svg">
<path d="M5.01832 3H18.968C19.6684 3 20.2363 3.56785 20.2363 4.26832C20.2363 4.9688 19.6684 5.53665 18.968 5.53665H5.01832C4.31785 5.53665 3.75 4.9688 3.75 4.26832C3.75 3.56785 4.31785 3 5.01832 3Z" fill="white"/>
<path d="M10.091 6.01455H13.2611V7.83954H10.091V6.01455Z" fill="white"/>
<path d="M12.7329 12.8625C12.7169 12.1209 12.5172 11.3949 12.1517 10.7494C11.7862 11.3949 11.5865 12.1209 11.5705 12.8625C11.5705 14.03 11.8288 14.9755 12.1517 14.9755C12.4746 14.9755 12.7329 14.0294 12.7329 12.8625Z" fill="white"/>
<path fill-rule="evenodd" clip-rule="evenodd" d="M18.5456 21H5.44132C4.99291 20.9995 4.56301 20.8211 4.24594 20.5041C3.92887 20.187 3.75051 19.7571 3.75 19.3087L5.2295 10.0094C5.22984 9.56101 5.40805 9.13111 5.72502 8.81402C6.04199 8.49693 6.47182 8.31856 6.92017 8.31804H16.8543C17.3027 8.31856 17.7326 8.49691 18.0497 8.81398C18.3667 9.13106 18.5451 9.56095 18.5456 10.0094L20.2363 19.3087C20.2359 19.757 20.0577 20.1869 19.7408 20.504C19.4238 20.8211 18.994 20.9995 18.5456 21ZM12.0987 10.0094C11.1582 10.0094 10.2387 10.2883 9.45668 10.8108C8.67462 11.3334 8.06509 12.0761 7.70515 12.9451C7.34522 13.814 7.25104 14.7702 7.43453 15.6927C7.61803 16.6152 8.07095 17.4625 8.73603 18.1276C9.40111 18.7927 10.2485 19.2456 11.171 19.4291C12.0935 19.6126 13.0496 19.5184 13.9186 19.1585C14.7876 18.7986 15.5303 18.189 16.0528 17.407C16.5754 16.6249 16.8543 15.7055 16.8543 14.7649C16.8529 13.5041 16.3515 12.2953 15.4599 11.4037C14.5684 10.5122 13.3596 10.0107 12.0987 10.0094Z" fill="white"/>
</svg>
